<svg xmlns="http://www.w3.org/2000/svg" viewBox="0 0 352 123"><defs><style>.cls-1{fill:#d6ce15;}.cls-2{fill:#534d4d;}.cls-3{fill:#a4a71e;}</style></defs><title>Recurso 1</title><g id="Capa_2" data-name="Capa 2"><g id="Capa_1-2" data-name="Capa 1"><rect class="cls-1" width="352" height="59"/><path class="cls-2" d="M52.81,13.56H67.65a8.79,8.79,0,0,1,6.52,2.36,8.38,8.38,0,0,1,2.4,6.28,8.87,8.87,0,0,1-.52,3.22,7,7,0,0,1-1.35,2.16,5.74,5.74,0,0,1-1.87,1.25,8.88,8.88,0,0,1-2.06.48v.29a7.48,7.48,0,0,1,2.2.48,6.52,6.52,0,0,1,2.31,1.39,7.42,7.42,0,0,1,1.77,2.4,7.88,7.88,0,0,1,.72,3.55,10.57,10.57,0,0,1-.67,3.79,9,9,0,0,1-1.77,3.07,8.59,8.59,0,0,1-2.74,2.07,8.28,8.28,0,0,1-3.46.72H52.81Zm5.43,28.85h9.31a4.72,4.72,0,0,0,3.31-1.1,4.09,4.09,0,0,0,1.2-3.17V36.51a4.09,4.09,0,0,0-1.2-3.17,4.68,4.68,0,0,0-3.31-1.1H58.24Zm0-14.69h8.4a4.48,4.48,0,0,0,3.12-1,4,4,0,0,0,1.1-3V22.2a3.76,3.76,0,0,0-1.1-2.92,4.32,4.32,0,0,0-3.12-1.06h-8.4ZM93.86,47.64a12,12,0,0,1-4.8-.91,10.24,10.24,0,0,1-3.6-2.59A12.28,12.28,0,0,1,83.16,40a18.11,18.11,0,0,1-.77-5.42,17.65,17.65,0,0,1,.77-5.38,11.72,11.72,0,0,1,2.3-4.13,10,10,0,0,1,3.6-2.64,12.15,12.15,0,0,1,4.8-.91,11.24,11.24,0,0,1,4.8,1,9.48,9.48,0,0,1,3.51,2.69,11,11,0,0,1,2.06,3.94A15.82,15.82,0,0,1,105,34v2H87.82v.82A6.85,6.85,0,0,0,89.5,41.5a6.39,6.39,0,0,0,4.89,1.82,7.12,7.12,0,0,0,3.89-1A8.91,8.91,0,0,0,101,39.58l3.07,3a10.05,10.05,0,0,1-4,3.7A13.33,13.33,0,0,1,93.86,47.64Zm0-22a6.42,6.42,0,0,0-2.49.48,5.66,5.66,0,0,0-1.92,1.35,6.25,6.25,0,0,0-1.2,2.06,7.7,7.7,0,0,0-.43,2.64v.34H99.43V32a6.78,6.78,0,0,0-1.49-4.61A5,5,0,0,0,93.86,25.61Zm24.8,22a12.84,12.84,0,0,1-6-1.24,13.14,13.14,0,0,1-4.17-3.46l3.36-3.07A11.14,11.14,0,0,0,115,42.51a8.37,8.37,0,0,0,4,.91,5.55,5.55,0,0,0,3.41-.86,3,3,0,0,0,1.15-2.5,2.77,2.77,0,0,0-.81-2,4.34,4.34,0,0,0-2.74-1.1l-2.3-.29a12,12,0,0,1-6-2.21,6.36,6.36,0,0,1-2.16-5.23,7.25,7.25,0,0,1,.67-3.21A6.61,6.61,0,0,1,112,23.6a8.63,8.63,0,0,1,2.93-1.54,13,13,0,0,1,3.79-.53,12.14,12.14,0,0,1,5.47,1.06A12.43,12.43,0,0,1,128,25.52l-3.21,3.07a8,8,0,0,0-2.55-2,7,7,0,0,0-3.55-.86,5,5,0,0,0-3.21.86,2.82,2.82,0,0,0-1,2.26A2.58,2.58,0,0,0,115.4,31a6.49,6.49,0,0,0,2.93,1.05l2.3.29c2.75.42,4.75,1.23,6,2.45a6.21,6.21,0,0,1,1.92,4.8,7.51,7.51,0,0,1-.72,3.31,7.06,7.06,0,0,1-2,2.5,9.43,9.43,0,0,1-3.12,1.63A13.59,13.59,0,0,1,118.66,47.64Zm22.39-.57a5.63,5.63,0,0,1-4.13-1.39,5.57,5.57,0,0,1-1.39-4V26.38h-3.89V22.11h2.11a2.22,2.22,0,0,0,1.78-.58,2.73,2.73,0,0,0,.52-1.87V15.29h4.71v6.82H146v4.27h-5.23V42.8h4.85v4.27Zm31.61.57a11.91,11.91,0,0,1-4.8-.91,9.67,9.67,0,0,1-3.56-2.59A12.09,12.09,0,0,1,162.1,40a17.79,17.79,0,0,1-.77-5.42,17.35,17.35,0,0,1,.77-5.38,11.56,11.56,0,0,1,2.2-4.13,9.46,9.46,0,0,1,3.56-2.64,12.08,12.08,0,0,1,4.8-.91,10.47,10.47,0,0,1,6.14,1.68,9.63,9.63,0,0,1,3.5,4.47l-4.32,2A5.17,5.17,0,0,0,176.11,27a5.25,5.25,0,0,0-3.45-1.06,5.32,5.32,0,0,0-4.37,1.82,7.19,7.19,0,0,0-1.44,4.66v4.46a7.39,7.39,0,0,0,1.44,4.71,5.39,5.39,0,0,0,4.37,1.77,5.53,5.53,0,0,0,3.64-1.1,8,8,0,0,0,2.21-3l4,2.11a9.89,9.89,0,0,1-3.75,4.7A10.85,10.85,0,0,1,172.66,47.64Zm14.82-36.09h5.23V26.24H193a8.19,8.19,0,0,1,2.45-3.36A7.08,7.08,0,0,1,200,21.53a7.3,7.3,0,0,1,5.95,2.55q2.16,2.49,2.16,7.15V47.07h-5.23V31.85q0-5.8-4.71-5.81a7.34,7.34,0,0,0-2,.29,5.32,5.32,0,0,0-1.73.77,4.22,4.22,0,0,0-1.25,1.34,4,4,0,0,0-.43,1.88V47.07h-5.23Zm37.63,36.09a12.08,12.08,0,0,1-4.75-.91,10.07,10.07,0,0,1-3.6-2.59,12.28,12.28,0,0,1-2.3-4.13,16.89,16.89,0,0,1-.82-5.42,16.47,16.47,0,0,1,.82-5.38,11.72,11.72,0,0,1,2.3-4.13,9.84,9.84,0,0,1,3.6-2.64,12.26,12.26,0,0,1,4.75-.91,11.92,11.92,0,0,1,4.71.91,9.86,9.86,0,0,1,3.65,2.64,11.72,11.72,0,0,1,2.3,4.13,16.74,16.74,0,0,1,.82,5.38,17.17,17.17,0,0,1-.82,5.42,12.28,12.28,0,0,1-2.3,4.13,10.08,10.08,0,0,1-3.65,2.59A11.74,11.74,0,0,1,225.11,47.64Zm0-4.32a5.81,5.81,0,0,0,4.32-1.63,6.88,6.88,0,0,0,1.64-5V32.48a6.73,6.73,0,0,0-1.64-4.95,6.39,6.39,0,0,0-8.64,0,6.77,6.77,0,0,0-1.63,4.95V36.7a6.92,6.92,0,0,0,1.63,5A5.84,5.84,0,0,0,225.11,43.32Zm19.94-25.68a3.31,3.31,0,0,1-2.4-.76,2.78,2.78,0,0,1-.72-2v-.82a2.78,2.78,0,0,1,.72-2,3.31,3.31,0,0,1,2.4-.76,3.13,3.13,0,0,1,2.36.76,2.78,2.78,0,0,1,.72,2v.82a2.78,2.78,0,0,1-.72,2A3.13,3.13,0,0,1,245.05,17.64Zm-2.64,4.47h5.24v25h-5.24Zm22.36,25.53a11.91,11.91,0,0,1-4.8-.91,9.67,9.67,0,0,1-3.56-2.59,12.09,12.09,0,0,1-2.2-4.13,17.79,17.79,0,0,1-.77-5.42,17.35,17.35,0,0,1,.77-5.38,11.56,11.56,0,0,1,2.2-4.13A9.46,9.46,0,0,1,260,22.44a12.08,12.08,0,0,1,4.8-.91,10.47,10.47,0,0,1,6.14,1.68,9.63,9.63,0,0,1,3.5,4.47l-4.32,2A5.17,5.17,0,0,0,268.22,27a5.25,5.25,0,0,0-3.45-1.06,5.32,5.32,0,0,0-4.37,1.82A7.19,7.19,0,0,0,259,32.38v4.46a7.39,7.39,0,0,0,1.44,4.71,5.39,5.39,0,0,0,4.37,1.77,5.53,5.53,0,0,0,3.64-1.1,8,8,0,0,0,2.21-3l4,2.11a9.89,9.89,0,0,1-3.75,4.7A10.85,10.85,0,0,1,264.77,47.64Zm24.33,0a12,12,0,0,1-4.8-.91,10.07,10.07,0,0,1-3.6-2.59A12.47,12.47,0,0,1,278.39,40a18.11,18.11,0,0,1-.76-5.42,17.66,17.66,0,0,1,.76-5.38,11.9,11.9,0,0,1,2.31-4.13,9.84,9.84,0,0,1,3.6-2.64,12.15,12.15,0,0,1,4.8-.91,11.3,11.3,0,0,1,4.8,1,9.45,9.45,0,0,1,3.5,2.69,11,11,0,0,1,2.07,3.94,15.82,15.82,0,0,1,.72,4.84v2H283.05v.82a6.85,6.85,0,0,0,1.68,4.75,6.4,6.4,0,0,0,4.9,1.82,7.09,7.09,0,0,0,3.88-1,8.8,8.8,0,0,0,2.69-2.74l3.07,3a10,10,0,0,1-4,3.7A13.32,13.32,0,0,1,289.1,47.64Zm0-22a6.44,6.44,0,0,0-2.5.48,5.87,5.87,0,0,0-1.92,1.35,6.25,6.25,0,0,0-1.2,2.06,7.7,7.7,0,0,0-.43,2.64v.34h11.62V32a6.83,6.83,0,0,0-1.49-4.61A5,5,0,0,0,289.1,25.61Z"/><path class="cls-3" d="M300,59h52l-52,64Z"/></g></g></svg>