<svg width="248" height="37" viewBox="0 0 248 37" fill="none" xmlns="http://www.w3.org/2000/svg">
<path d="M0.128 2.496H14.96C17.744 2.496 19.92 3.28 21.488 4.848C23.088 6.416 23.888 8.512 23.888 11.136C23.888 12.384 23.712 13.456 23.36 14.352C23.008 15.216 22.56 15.936 22.016 16.512C21.472 17.056 20.848 17.472 20.144 17.76C19.44 18.016 18.752 18.176 18.08 18.24V18.528C18.752 18.56 19.488 18.72 20.288 19.008C21.12 19.296 21.888 19.76 22.592 20.4C23.296 21.008 23.888 21.808 24.368 22.8C24.848 23.76 25.088 24.944 25.088 26.352C25.088 27.696 24.864 28.96 24.416 30.144C24 31.328 23.408 32.352 22.64 33.216C21.872 34.08 20.96 34.768 19.904 35.28C18.848 35.76 17.696 36 16.448 36H0.128V2.496ZM5.552 31.344H14.864C16.272 31.344 17.376 30.976 18.176 30.24C18.976 29.504 19.376 28.448 19.376 27.072V25.44C19.376 24.064 18.976 23.008 18.176 22.272C17.376 21.536 16.272 21.168 14.864 21.168H5.552V31.344ZM5.552 16.656H13.952C15.296 16.656 16.336 16.32 17.072 15.648C17.808 14.944 18.176 13.952 18.176 12.672V11.136C18.176 9.856 17.808 8.88 17.072 8.208C16.336 7.504 15.296 7.152 13.952 7.152H5.552V16.656ZM41.1766 36.576C39.3846 36.576 37.7846 36.272 36.3766 35.664C34.9686 35.056 33.7686 34.192 32.7766 33.072C31.7846 31.92 31.0166 30.544 30.4726 28.944C29.9606 27.312 29.7046 25.504 29.7046 23.52C29.7046 21.536 29.9606 19.744 30.4726 18.144C31.0166 16.512 31.7846 15.136 32.7766 14.016C33.7686 12.864 34.9686 11.984 36.3766 11.376C37.7846 10.768 39.3846 10.464 41.1766 10.464C43.0006 10.464 44.6006 10.784 45.9766 11.424C47.3846 12.064 48.5526 12.96 49.4806 14.112C50.4086 15.232 51.0966 16.544 51.5446 18.048C52.0246 19.552 52.2646 21.168 52.2646 22.896V24.864H35.1286V25.68C35.1286 27.6 35.6886 29.184 36.8086 30.432C37.9606 31.648 39.5926 32.256 41.7046 32.256C43.2406 32.256 44.5366 31.92 45.5926 31.248C46.6486 30.576 47.5446 29.664 48.2806 28.512L51.3526 31.536C50.4246 33.072 49.0806 34.304 47.3206 35.232C45.5606 36.128 43.5126 36.576 41.1766 36.576ZM41.1766 14.544C40.2806 14.544 39.4486 14.704 38.6806 15.024C37.9446 15.344 37.3046 15.792 36.7606 16.368C36.2486 16.944 35.8486 17.632 35.5606 18.432C35.2726 19.232 35.1286 20.112 35.1286 21.072V21.408H46.7446V20.928C46.7446 19.008 46.2486 17.472 45.2566 16.32C44.2646 15.136 42.9046 14.544 41.1766 14.544ZM65.9765 36.576C63.6085 36.576 61.6245 36.16 60.0245 35.328C58.4245 34.496 57.0325 33.344 55.8485 31.872L59.2085 28.8C60.1365 29.92 61.1605 30.8 62.2805 31.44C63.4325 32.048 64.7605 32.352 66.2645 32.352C67.8005 32.352 68.9365 32.064 69.6725 31.488C70.4405 30.88 70.8245 30.048 70.8245 28.992C70.8245 28.192 70.5525 27.52 70.0085 26.976C69.4965 26.4 68.5845 26.032 67.2725 25.872L64.9685 25.584C62.4085 25.264 60.3925 24.528 58.9205 23.376C57.4805 22.192 56.7605 20.448 56.7605 18.144C56.7605 16.928 56.9845 15.856 57.4325 14.928C57.8805 13.968 58.5045 13.168 59.3045 12.528C60.1365 11.856 61.1125 11.344 62.2325 10.992C63.3845 10.64 64.6485 10.464 66.0245 10.464C68.2645 10.464 70.0885 10.816 71.4965 11.52C72.9365 12.224 74.2165 13.2 75.3365 14.448L72.1205 17.52C71.4805 16.752 70.6325 16.096 69.5765 15.552C68.5525 14.976 67.3685 14.688 66.0245 14.688C64.5845 14.688 63.5125 14.976 62.8085 15.552C62.1365 16.128 61.8005 16.88 61.8005 17.808C61.8005 18.768 62.1045 19.488 62.7125 19.968C63.3205 20.448 64.2965 20.8 65.6405 21.024L67.9445 21.312C70.6965 21.728 72.6965 22.544 73.9445 23.76C75.2245 24.944 75.8645 26.544 75.8645 28.56C75.8645 29.776 75.6245 30.88 75.1445 31.872C74.6965 32.832 74.0405 33.664 73.1765 34.368C72.3125 35.072 71.2725 35.616 70.0565 36C68.8405 36.384 67.4805 36.576 65.9765 36.576ZM88.3591 36C86.5351 36 85.1591 35.536 84.2311 34.608C83.3031 33.648 82.8391 32.304 82.8391 30.576V15.312H78.9511V11.04H81.0631C81.9271 11.04 82.5191 10.848 82.8391 10.464C83.1911 10.08 83.3671 9.456 83.3671 8.592V4.224H88.0711V11.04H93.3031V15.312H88.0711V31.728H92.9191V36H88.3591ZM119.97 36.576C118.178 36.576 116.578 36.272 115.17 35.664C113.762 35.056 112.578 34.192 111.618 33.072C110.658 31.92 109.922 30.544 109.41 28.944C108.898 27.312 108.642 25.504 108.642 23.52C108.642 21.536 108.898 19.744 109.41 18.144C109.922 16.512 110.658 15.136 111.618 14.016C112.578 12.864 113.762 11.984 115.17 11.376C116.578 10.768 118.178 10.464 119.97 10.464C122.466 10.464 124.514 11.024 126.114 12.144C127.714 13.264 128.882 14.752 129.618 16.608L125.298 18.624C124.946 17.472 124.322 16.56 123.426 15.888C122.562 15.184 121.41 14.832 119.97 14.832C118.05 14.832 116.594 15.44 115.602 16.656C114.642 17.84 114.162 19.392 114.162 21.312V25.776C114.162 27.696 114.642 29.264 115.602 30.48C116.594 31.664 118.05 32.256 119.97 32.256C121.506 32.256 122.722 31.888 123.618 31.152C124.546 30.384 125.282 29.376 125.826 28.128L129.81 30.24C128.978 32.288 127.73 33.856 126.066 34.944C124.402 36.032 122.37 36.576 119.97 36.576ZM134.791 0.48H140.023V15.168H140.263C140.807 13.824 141.623 12.704 142.711 11.808C143.831 10.912 145.351 10.464 147.271 10.464C149.831 10.464 151.815 11.312 153.223 13.008C154.663 14.672 155.383 17.056 155.383 20.16V36H150.151V20.784C150.151 16.912 148.583 14.976 145.447 14.976C144.775 14.976 144.103 15.072 143.431 15.264C142.791 15.424 142.215 15.68 141.703 16.032C141.191 16.384 140.775 16.832 140.455 17.376C140.167 17.92 140.023 18.544 140.023 19.248V36H134.791V0.48ZM172.427 36.576C170.699 36.576 169.115 36.272 167.675 35.664C166.267 35.056 165.067 34.192 164.075 33.072C163.083 31.92 162.315 30.544 161.771 28.944C161.227 27.312 160.955 25.504 160.955 23.52C160.955 21.536 161.227 19.744 161.771 18.144C162.315 16.512 163.083 15.136 164.075 14.016C165.067 12.864 166.267 11.984 167.675 11.376C169.115 10.768 170.699 10.464 172.427 10.464C174.155 10.464 175.723 10.768 177.131 11.376C178.571 11.984 179.787 12.864 180.779 14.016C181.771 15.136 182.539 16.512 183.083 18.144C183.627 19.744 183.899 21.536 183.899 23.52C183.899 25.504 183.627 27.312 183.083 28.944C182.539 30.544 181.771 31.92 180.779 33.072C179.787 34.192 178.571 35.056 177.131 35.664C175.723 36.272 174.155 36.576 172.427 36.576ZM172.427 32.256C174.219 32.256 175.659 31.712 176.747 30.624C177.835 29.504 178.379 27.84 178.379 25.632V21.408C178.379 19.2 177.835 17.552 176.747 16.464C175.659 15.344 174.219 14.784 172.427 14.784C170.635 14.784 169.195 15.344 168.107 16.464C167.019 17.552 166.475 19.2 166.475 21.408V25.632C166.475 27.84 167.019 29.504 168.107 30.624C169.195 31.712 170.635 32.256 172.427 32.256ZM192.368 6.576C191.28 6.576 190.48 6.32 189.968 5.808C189.488 5.296 189.248 4.64 189.248 3.84V3.024C189.248 2.224 189.488 1.568 189.968 1.056C190.48 0.543999 191.28 0.287999 192.368 0.287999C193.456 0.287999 194.24 0.543999 194.72 1.056C195.2 1.568 195.44 2.224 195.44 3.024V3.84C195.44 4.64 195.2 5.296 194.72 5.808C194.24 6.32 193.456 6.576 192.368 6.576ZM189.728 11.04H194.96V36H189.728V11.04ZM212.08 36.576C210.288 36.576 208.688 36.272 207.28 35.664C205.872 35.056 204.688 34.192 203.728 33.072C202.768 31.92 202.032 30.544 201.52 28.944C201.008 27.312 200.752 25.504 200.752 23.52C200.752 21.536 201.008 19.744 201.52 18.144C202.032 16.512 202.768 15.136 203.728 14.016C204.688 12.864 205.872 11.984 207.28 11.376C208.688 10.768 210.288 10.464 212.08 10.464C214.576 10.464 216.624 11.024 218.224 12.144C219.824 13.264 220.992 14.752 221.728 16.608L217.408 18.624C217.056 17.472 216.432 16.56 215.536 15.888C214.672 15.184 213.52 14.832 212.08 14.832C210.16 14.832 208.704 15.44 207.712 16.656C206.752 17.84 206.272 19.392 206.272 21.312V25.776C206.272 27.696 206.752 29.264 207.712 30.48C208.704 31.664 210.16 32.256 212.08 32.256C213.616 32.256 214.832 31.888 215.728 31.152C216.656 30.384 217.392 29.376 217.936 28.128L221.92 30.24C221.088 32.288 219.84 33.856 218.176 34.944C216.512 36.032 214.48 36.576 212.08 36.576ZM236.411 36.576C234.619 36.576 233.019 36.272 231.611 35.664C230.203 35.056 229.003 34.192 228.011 33.072C227.019 31.92 226.251 30.544 225.707 28.944C225.195 27.312 224.939 25.504 224.939 23.52C224.939 21.536 225.195 19.744 225.707 18.144C226.251 16.512 227.019 15.136 228.011 14.016C229.003 12.864 230.203 11.984 231.611 11.376C233.019 10.768 234.619 10.464 236.411 10.464C238.235 10.464 239.835 10.784 241.211 11.424C242.619 12.064 243.787 12.96 244.715 14.112C245.643 15.232 246.331 16.544 246.779 18.048C247.259 19.552 247.499 21.168 247.499 22.896V24.864H230.363V25.68C230.363 27.6 230.923 29.184 232.043 30.432C233.195 31.648 234.827 32.256 236.939 32.256C238.475 32.256 239.771 31.92 240.827 31.248C241.883 30.576 242.779 29.664 243.515 28.512L246.587 31.536C245.659 33.072 244.315 34.304 242.555 35.232C240.795 36.128 238.747 36.576 236.411 36.576ZM236.411 14.544C235.515 14.544 234.683 14.704 233.915 15.024C233.179 15.344 232.539 15.792 231.995 16.368C231.483 16.944 231.083 17.632 230.795 18.432C230.507 19.232 230.363 20.112 230.363 21.072V21.408H241.979V20.928C241.979 19.008 241.483 17.472 240.491 16.32C239.499 15.136 238.139 14.544 236.411 14.544Z" fill="#534D4D"/>
</svg>
